<svg width="48" height="48" viewBox="0 0 48 48" fill="none" xmlns="http://www.w3.org/2000/svg">
<rect width="48" height="48" fill="#1DB954"/>
<path d="M36.9677 32.422H36.9382V32.922C36.9382 33.3167 36.7869 33.6619 36.5248 33.924C36.2627 34.1861 35.9175 34.3374 35.5228 34.3374H11.4772C11.0825 34.3374 10.7373 34.1861 10.4752 33.924C10.2131 33.6619 10.0618 33.3167 10.0618 32.922V18.2471C10.0618 17.8525 10.2131 17.5073 10.4752 17.2452C10.7373 16.9831 11.0825 16.8317 11.4772 16.8317H17.1644C17.8826 16.8317 18.4601 16.2543 18.4601 15.5361V14.6816C18.4601 14.4777 18.5336 14.3142 18.6378 14.21C18.7419 14.1059 18.9055 14.0323 19.1093 14.0323H27.9202C28.124 14.0323 28.2876 14.1059 28.3917 14.21C28.4958 14.3142 28.5694 14.4777 28.5694 14.6816V15.5361C28.5694 16.2543 29.1469 16.8317 29.865 16.8317H35.5523C35.9469 16.8317 36.2922 16.9831 36.5542 17.2452C36.8163 17.5073 36.9677 17.8525 36.9677 18.2471V32.422ZM38.3223 15.4477C37.61 14.706 36.6281 14.27 35.5228 14.27H31.1013C31.0058 13.5685 30.6849 12.911 30.1838 12.4367C29.5923 11.848 28.7906 11.5 27.9202 11.5H19.0798C18.1801 11.5 17.3755 11.848 16.7814 12.4421C16.2907 12.9328 15.9661 13.5692 15.8695 14.27H11.4772C10.3698 14.27 9.38628 14.7076 8.67371 15.4519C7.97195 16.1557 7.5 17.162 7.5 18.2471V32.922C7.5 34.0295 7.93766 35.013 8.68195 35.7255C9.38579 36.4273 10.3921 36.8992 11.4772 36.8992H35.5228C36.6302 36.8992 37.6137 36.4616 38.3263 35.7173C39.0281 35.0135 39.5 34.0071 39.5 32.922V18.2471C39.5 17.1418 39.064 16.1599 38.3223 15.4477Z" fill="#FBFBFB" stroke="#FBFBFB"/>
<path d="M28.6578 25.614H28.6577L28.6579 25.6234C28.6846 27.0355 28.0997 28.3211 27.1567 29.2654C26.2107 30.1832 24.9195 30.7718 23.5 30.7718C22.0806 30.7718 20.7894 30.1832 19.8434 29.2654C18.9055 28.3262 18.3422 27.0392 18.3422 25.614C18.3422 24.1945 18.9308 22.9033 19.8485 21.9574C20.7878 21.0194 22.0748 20.4562 23.5 20.4562C24.9195 20.4562 26.2107 21.0448 27.1566 21.9625C28.0946 22.9017 28.6578 24.1887 28.6578 25.614ZM23.5 17.8354C21.3578 17.8354 19.4053 18.7174 18.0191 20.1036C16.6024 21.5203 15.751 23.4438 15.751 25.5845C15.751 27.7267 16.6329 29.6793 18.0191 31.0654C19.4358 32.4822 21.3593 33.3336 23.5 33.3336C25.6422 33.3336 27.5948 32.4516 28.981 31.0654C30.3977 29.6487 31.2491 27.7252 31.2491 25.5845C31.2491 23.4423 30.3671 21.4897 28.981 20.1036C27.5948 18.7174 25.6422 17.8354 23.5 17.8354Z" fill="#FBFBFB" stroke="#FBFBFB"/>
<path d="M33.9905 21.6939C35.0641 21.6939 35.9345 20.8235 35.9345 19.7499C35.9345 18.6764 35.0641 17.806 33.9905 17.806C32.917 17.806 32.0466 18.6764 32.0466 19.7499C32.0466 20.8235 32.917 21.6939 33.9905 21.6939Z" fill="#FBFBFB" stroke="#FBFBFB"/>
</svg>
