<svg width="48" height="48" viewBox="0 0 48 48" fill="none" xmlns="http://www.w3.org/2000/svg">
<rect width="48" height="48" fill="#1DB954"/>
<path d="M15.9348 12L15.3043 19.6364M15.9348 12H38M15.9348 12L24.2705 18.9293M15.3043 19.6364L12.7826 16.4545L9.63043 18.3636L9 23.4545L12.7826 30.4545L17.8261 35.5455L25.3913 40H29.8043L32.3261 36.1818L26.0217 31.7273L23.5 34.9091L17.8261 30.4545L16.8804 29.1818M15.3043 19.6364L17.1957 23.4545L14.0435 25.3636L16.4076 28.5455M38 12V29.1818M38 12L29.1739 18.9293M38 29.1818H16.8804M38 29.1818L29.1739 18.9293M16.8804 29.1818L16.4076 28.5455M29.1739 18.9293L26.6522 20.9091L24.2705 18.9293M24.2705 18.9293L16.4076 28.5455" stroke="#FBFBFB" stroke-width="3" stroke-linejoin="round"/>
</svg>
