<svg width="24" height="24" viewBox="0 0 24 24" fill="none" xmlns="http://www.w3.org/2000/svg">
<rect width="24" height="24" rx="1" fill="#C4C4C4"/>
<rect x="18" y="8" width="15" height="4" rx="2" transform="rotate(135 18 8)" fill="#32CA41"/>
<path d="M5.99438 17.2122L16.6033 6.60331V6.60331C17.3747 7.37468 17.3747 8.62531 16.6033 9.39668L8.78776 17.2122C8.01639 17.9836 6.76575 17.9836 5.99438 17.2122V17.2122Z" fill="#17AE38"/>
<rect x="16" y="18" width="15" height="4" rx="2" transform="rotate(-135 16 18)" fill="#32CA41"/>
<path d="M6.78778 5.99438L17.3967 16.6033V16.6033C16.6253 17.3747 15.3747 17.3747 14.6033 16.6033L6.78778 8.78776C6.01641 8.01639 6.01641 6.76575 6.78778 5.99438V5.99438Z" fill="#17AE38"/>
</svg>