<svg width="48" height="48" viewBox="0 0 48 48" fill="none" xmlns="http://www.w3.org/2000/svg">
<rect width="48" height="48" fill="#1DB954"/>
<path d="M24.1738 17.4379L22.826 20.1727C21.7028 20.6285 20.1303 21.9503 22.826 23.5912L21.4781 26.326C20.0159 25.9552 17.6318 24.3774 17.665 20.8563M24.1738 17.4379L18.1085 18.1216M24.1738 17.4379L29.2281 17.7797M18.1085 18.1216H15.4129L16.0868 17.4379C19.4564 6.49859 28.2172 9.23334 30.239 15.3868C34.552 15.3868 34.7317 17.21 34.2825 18.1216L29.2281 17.7797M18.1085 18.1216C17.807 19.141 17.6726 20.0497 17.665 20.8563M15.4129 40C14.8281 36.8852 14.8333 31.8012 17.4348 28.7813M24.1738 26.326C20.9736 26.1351 18.8305 27.1611 17.4348 28.7813M24.1738 26.326C26.3821 26.326 27.6971 25.1459 28.4427 23.5912M24.1738 26.326C25.1413 26.2647 26.3398 26.3949 27.5435 26.8419M32.9348 40C33.2331 37.8817 33.2456 36.072 33.0451 34.5304M20.1304 40C19.4565 36.3536 19.187 29.1975 23.5 29.7444C26.4904 30.1237 27.2001 32.1857 27.3542 34.5304M27.5435 40C27.2434 38.4776 27.4779 36.4129 27.3542 34.5304M29.2281 17.7797C29.4117 19.332 29.3353 21.73 28.4427 23.5912M17.4348 28.7813L8 26.326V22.0529M17.665 20.8563L15.4129 20.1394M28.4427 23.5912L39 26.326V29.7444M32.7971 33.163L39 35.2141V29.7444M32.7971 33.163C32.8991 33.5934 32.9825 34.0488 33.0451 34.5304M32.7971 33.163C31.9317 29.5106 29.7292 27.6538 27.5435 26.8419M39 29.7444L33.6087 28.7813M8 22.0529V17.7797L15.4129 20.1394M8 22.0529C9.797 22.5435 13.7954 22.8477 15.4129 20.1394M27.3542 34.5304H29.2281M33.0451 34.5304H29.2281M29.2281 34.5304C29.1158 32.8233 28.6217 28.8956 27.5435 26.8419" stroke="#FBFBFB" stroke-width="3"/>
</svg>
