<svg width="249" height="51" viewBox="0 0 249 51" fill="none" xmlns="http://www.w3.org/2000/svg">
<mask id="path-1-outside-1" maskUnits="userSpaceOnUse" x="0" y="0" width="249" height="51" fill="black">
<rect fill="white" width="249" height="51"/>
</mask>
<path d="M16.8328 1.83522C22.1795 1.83522 26.2818 2.60085 29.1395 4.1321C31.9972 5.61695 33.9792 7.98343 35.0854 11.2315C36.2377 14.4796 36.8139 18.9806 36.8139 24.7344C36.8139 30.7202 36.2608 35.4531 35.1546 38.9332C34.0483 42.4134 32.0433 44.9886 29.1395 46.6591C26.2818 48.3295 22.1795 49.1648 16.8328 49.1648H3C1.89543 49.1648 1 48.2693 1 47.1648V3.83522C1 2.73066 1.89543 1.83522 3 1.83522H16.8328ZM16.8328 40.8125C19.8288 40.8125 22.0412 40.2093 23.4701 39.0028C24.9451 37.7964 25.89 36.0795 26.3048 33.8523C26.7657 31.5786 26.9962 28.3537 26.9962 24.1776C26.9962 20.4654 26.7657 17.6581 26.3048 15.7557C25.8439 13.8532 24.899 12.4612 23.4701 11.5795C22.0412 10.6515 19.8288 10.1875 16.8328 10.1875H12.5412C11.4366 10.1875 10.5412 11.0829 10.5412 12.1875V38.8125C10.5412 39.9171 11.4366 40.8125 12.5412 40.8125H16.8328Z" fill="#212121"/>
<path d="M59.0555 50C54.308 50 50.5054 49.1416 47.6476 47.4247C44.7899 45.7079 42.7157 43.0862 41.4251 39.5597C40.1806 35.9867 39.5584 31.3698 39.5584 25.7088C39.5584 20.0014 40.1806 15.3613 41.4251 11.7884C42.7157 8.16904 44.7899 5.47774 47.6476 3.71448C50.5054 1.90482 54.308 1 59.0555 1C63.8031 1 67.6057 1.90482 70.4634 3.71448C73.3212 5.47774 75.3723 8.16904 76.6168 11.7884C77.9074 15.3613 78.5527 20.0014 78.5527 25.7088C78.5527 31.277 77.9304 35.8243 76.6859 39.3509C75.4875 42.8774 73.4595 45.5455 70.6017 47.3551C67.744 49.1184 63.8952 50 59.0555 50ZM59.0555 41.6477C61.5445 41.6477 63.4804 41.1373 64.8632 40.1165C66.2921 39.0492 67.283 37.3788 67.8362 35.1051C68.4354 32.785 68.735 29.6529 68.735 25.7088C68.735 21.7647 68.4354 18.6326 67.8362 16.3125C67.237 13.946 66.2229 12.206 64.794 11.0923C63.4113 9.93229 61.4984 9.35227 59.0555 9.35227C56.6126 9.35227 54.6767 9.93229 53.2479 11.0923C51.8651 12.206 50.8741 13.946 50.2749 16.3125C49.6757 18.6326 49.3761 21.7647 49.3761 25.7088C49.3761 29.3745 49.6296 32.3442 50.1366 34.6179C50.6436 36.8916 51.5885 38.6316 52.9713 39.8381C54.4002 41.0445 56.4283 41.6477 59.0555 41.6477Z" fill="#212121"/>
<path d="M83.2779 3.83522C83.2779 2.73066 84.1733 1.83522 85.2779 1.83522H101.738C106.762 1.83522 110.449 2.85606 112.8 4.89773C115.197 6.89299 116.395 10.1411 116.395 14.642C116.395 17.0549 116.004 19.0502 115.22 20.6278C114.934 21.2033 114.575 21.7541 114.142 22.2801C113.108 23.5358 113.307 25.7382 114.455 26.8904C114.972 27.4093 115.411 27.9899 115.773 28.6321C116.787 30.349 117.294 32.5994 117.294 35.3835C117.294 40.0237 115.981 43.4806 113.353 45.7543C110.726 48.0279 106.946 49.1648 102.014 49.1648H85.2779C84.1733 49.1648 83.2779 48.2693 83.2779 47.1648V3.83522ZM101.323 21.3239C104.918 21.3239 106.716 19.4446 106.716 15.6861C106.716 11.9276 104.895 10.0483 101.254 10.0483H94.819C93.7145 10.0483 92.819 10.9437 92.819 12.0483V19.3239C92.819 20.4284 93.7145 21.3239 94.819 21.3239H101.323ZM101.531 40.9517C103.605 40.9517 105.126 40.5341 106.094 39.6989C107.108 38.8172 107.615 37.3556 107.615 35.3139C107.615 33.2723 107.131 31.7874 106.163 30.8594C105.195 29.8849 103.651 29.3977 101.531 29.3977H94.819C93.7145 29.3977 92.819 30.2932 92.819 31.3977V38.9517C92.819 40.0563 93.7145 40.9517 94.819 40.9517H101.531Z" fill="#212121"/>
<path d="M133.494 10.1875C132.389 10.1875 131.494 11.0829 131.494 12.1875V19.2543C131.494 20.3588 132.389 21.2543 133.494 21.2543H146.225C147.33 21.2543 148.225 22.1497 148.225 23.2543V27.4673C148.225 28.5719 147.33 29.4673 146.225 29.4673H133.494C132.389 29.4673 131.494 30.3628 131.494 31.4673V38.8125C131.494 39.9171 132.389 40.8125 133.494 40.8125H150.373C151.478 40.8125 152.373 41.7079 152.373 42.8125V47.1648C152.373 48.2693 151.478 49.1648 150.373 49.1648H123.952C122.848 49.1648 121.952 48.2693 121.952 47.1648V3.83522C121.952 2.73066 122.848 1.83522 123.952 1.83522H150.373C151.478 1.83522 152.373 2.73066 152.373 3.83522V8.18751C152.373 9.29208 151.478 10.1875 150.373 10.1875H133.494Z" fill="#212121"/>
<path d="M203.867 1.83522C204.971 1.83522 205.867 2.73066 205.867 3.83522V47.1648C205.867 48.2693 204.971 49.1648 203.867 49.1648H198.326C197.221 49.1648 196.326 48.2693 196.326 47.1648V13.1404C196.326 12.8165 196.063 12.554 195.739 12.554V12.554C195.474 12.554 195.241 12.7327 195.173 12.9895L186.489 45.5915C186.256 46.4673 185.463 47.0767 184.556 47.0767H178.089C177.183 47.0767 176.39 46.4673 176.156 45.5915L167.473 12.9895C167.404 12.7327 167.172 12.554 166.906 12.554V12.554C166.582 12.554 166.32 12.8165 166.32 13.1404V47.1648C166.32 48.2693 165.424 49.1648 164.32 49.1648H158.778C157.674 49.1648 156.778 48.2693 156.778 47.1648V3.83522C156.778 2.73066 157.674 1.83522 158.778 1.83522H171.45C172.375 1.83522 173.178 2.46847 173.395 3.36699L179.378 28.2139C179.87 30.2562 182.775 30.2562 183.267 28.2139L189.25 3.36699C189.467 2.46847 190.271 1.83522 191.195 1.83522H203.867Z" fill="#212121"/>
<path d="M236.935 42.1776C236.735 41.2588 235.922 40.6037 234.981 40.6037H221.748C220.808 40.6037 219.994 41.2588 219.794 42.1776L218.613 47.5909C218.413 48.5097 217.6 49.1648 216.659 49.1648H211.225C209.945 49.1648 208.994 47.9782 209.274 46.7285L218.958 3.39898C219.162 2.48505 219.973 1.83522 220.91 1.83522H235.819C236.756 1.83522 237.567 2.48505 237.771 3.39898L247.455 46.7285C247.735 47.9782 246.784 49.1648 245.504 49.1648H240.07C239.129 49.1648 238.316 48.5097 238.116 47.5909L236.935 42.1776ZM230.36 11.3547C230.164 10.4307 229.348 9.76989 228.404 9.76989H228.325C227.381 9.76989 226.565 10.4307 226.369 11.3547L222.447 29.8363C222.183 31.0802 223.132 32.2514 224.404 32.2514H232.326C233.597 32.2514 234.546 31.0802 234.282 29.8363L230.36 11.3547Z" fill="#212121"/>
<path d="M16.8328 1.83522C22.1795 1.83522 26.2818 2.60085 29.1395 4.1321C31.9972 5.61695 33.9792 7.98343 35.0854 11.2315C36.2377 14.4796 36.8139 18.9806 36.8139 24.7344C36.8139 30.7202 36.2608 35.4531 35.1546 38.9332C34.0483 42.4134 32.0433 44.9886 29.1395 46.6591C26.2818 48.3295 22.1795 49.1648 16.8328 49.1648H3C1.89543 49.1648 1 48.2693 1 47.1648V3.83522C1 2.73066 1.89543 1.83522 3 1.83522H16.8328ZM16.8328 40.8125C19.8288 40.8125 22.0412 40.2093 23.4701 39.0028C24.9451 37.7964 25.89 36.0795 26.3048 33.8523C26.7657 31.5786 26.9962 28.3537 26.9962 24.1776C26.9962 20.4654 26.7657 17.6581 26.3048 15.7557C25.8439 13.8532 24.899 12.4612 23.4701 11.5795C22.0412 10.6515 19.8288 10.1875 16.8328 10.1875H12.5412C11.4366 10.1875 10.5412 11.0829 10.5412 12.1875V38.8125C10.5412 39.9171 11.4366 40.8125 12.5412 40.8125H16.8328Z" stroke="#AEAEAE" stroke-width="2" mask="url(#path-1-outside-1)"/>
<path d="M59.0555 50C54.308 50 50.5054 49.1416 47.6476 47.4247C44.7899 45.7079 42.7157 43.0862 41.4251 39.5597C40.1806 35.9867 39.5584 31.3698 39.5584 25.7088C39.5584 20.0014 40.1806 15.3613 41.4251 11.7884C42.7157 8.16904 44.7899 5.47774 47.6476 3.71448C50.5054 1.90482 54.308 1 59.0555 1C63.8031 1 67.6057 1.90482 70.4634 3.71448C73.3212 5.47774 75.3723 8.16904 76.6168 11.7884C77.9074 15.3613 78.5527 20.0014 78.5527 25.7088C78.5527 31.277 77.9304 35.8243 76.6859 39.3509C75.4875 42.8774 73.4595 45.5455 70.6017 47.3551C67.744 49.1184 63.8952 50 59.0555 50ZM59.0555 41.6477C61.5445 41.6477 63.4804 41.1373 64.8632 40.1165C66.2921 39.0492 67.283 37.3788 67.8362 35.1051C68.4354 32.785 68.735 29.6529 68.735 25.7088C68.735 21.7647 68.4354 18.6326 67.8362 16.3125C67.237 13.946 66.2229 12.206 64.794 11.0923C63.4113 9.93229 61.4984 9.35227 59.0555 9.35227C56.6126 9.35227 54.6767 9.93229 53.2479 11.0923C51.8651 12.206 50.8741 13.946 50.2749 16.3125C49.6757 18.6326 49.3761 21.7647 49.3761 25.7088C49.3761 29.3745 49.6296 32.3442 50.1366 34.6179C50.6436 36.8916 51.5885 38.6316 52.9713 39.8381C54.4002 41.0445 56.4283 41.6477 59.0555 41.6477Z" stroke="#AEAEAE" stroke-width="2" mask="url(#path-1-outside-1)"/>
<path d="M83.2779 3.83522C83.2779 2.73066 84.1733 1.83522 85.2779 1.83522H101.738C106.762 1.83522 110.449 2.85606 112.8 4.89773C115.197 6.89299 116.395 10.1411 116.395 14.642C116.395 17.0549 116.004 19.0502 115.22 20.6278C114.934 21.2033 114.575 21.7541 114.142 22.2801C113.108 23.5358 113.307 25.7382 114.455 26.8904C114.972 27.4093 115.411 27.9899 115.773 28.6321C116.787 30.349 117.294 32.5994 117.294 35.3835C117.294 40.0237 115.981 43.4806 113.353 45.7543C110.726 48.0279 106.946 49.1648 102.014 49.1648H85.2779C84.1733 49.1648 83.2779 48.2693 83.2779 47.1648V3.83522ZM101.323 21.3239C104.918 21.3239 106.716 19.4446 106.716 15.6861C106.716 11.9276 104.895 10.0483 101.254 10.0483H94.819C93.7145 10.0483 92.819 10.9437 92.819 12.0483V19.3239C92.819 20.4284 93.7145 21.3239 94.819 21.3239H101.323ZM101.531 40.9517C103.605 40.9517 105.126 40.5341 106.094 39.6989C107.108 38.8172 107.615 37.3556 107.615 35.3139C107.615 33.2723 107.131 31.7874 106.163 30.8594C105.195 29.8849 103.651 29.3977 101.531 29.3977H94.819C93.7145 29.3977 92.819 30.2932 92.819 31.3977V38.9517C92.819 40.0563 93.7145 40.9517 94.819 40.9517H101.531Z" stroke="#AEAEAE" stroke-width="2" mask="url(#path-1-outside-1)"/>
<path d="M133.494 10.1875C132.389 10.1875 131.494 11.0829 131.494 12.1875V19.2543C131.494 20.3588 132.389 21.2543 133.494 21.2543H146.225C147.33 21.2543 148.225 22.1497 148.225 23.2543V27.4673C148.225 28.5719 147.33 29.4673 146.225 29.4673H133.494C132.389 29.4673 131.494 30.3628 131.494 31.4673V38.8125C131.494 39.9171 132.389 40.8125 133.494 40.8125H150.373C151.478 40.8125 152.373 41.7079 152.373 42.8125V47.1648C152.373 48.2693 151.478 49.1648 150.373 49.1648H123.952C122.848 49.1648 121.952 48.2693 121.952 47.1648V3.83522C121.952 2.73066 122.848 1.83522 123.952 1.83522H150.373C151.478 1.83522 152.373 2.73066 152.373 3.83522V8.18751C152.373 9.29208 151.478 10.1875 150.373 10.1875H133.494Z" stroke="#AEAEAE" stroke-width="2" mask="url(#path-1-outside-1)"/>
<path d="M203.867 1.83522C204.971 1.83522 205.867 2.73066 205.867 3.83522V47.1648C205.867 48.2693 204.971 49.1648 203.867 49.1648H198.326C197.221 49.1648 196.326 48.2693 196.326 47.1648V13.1404C196.326 12.8165 196.063 12.554 195.739 12.554V12.554C195.474 12.554 195.241 12.7327 195.173 12.9895L186.489 45.5915C186.256 46.4673 185.463 47.0767 184.556 47.0767H178.089C177.183 47.0767 176.39 46.4673 176.156 45.5915L167.473 12.9895C167.404 12.7327 167.172 12.554 166.906 12.554V12.554C166.582 12.554 166.32 12.8165 166.32 13.1404V47.1648C166.32 48.2693 165.424 49.1648 164.32 49.1648H158.778C157.674 49.1648 156.778 48.2693 156.778 47.1648V3.83522C156.778 2.73066 157.674 1.83522 158.778 1.83522H171.45C172.375 1.83522 173.178 2.46847 173.395 3.36699L179.378 28.2139C179.87 30.2562 182.775 30.2562 183.267 28.2139L189.25 3.36699C189.467 2.46847 190.271 1.83522 191.195 1.83522H203.867Z" stroke="#AEAEAE" stroke-width="2" mask="url(#path-1-outside-1)"/>
<path d="M236.935 42.1776C236.735 41.2588 235.922 40.6037 234.981 40.6037H221.748C220.808 40.6037 219.994 41.2588 219.794 42.1776L218.613 47.5909C218.413 48.5097 217.6 49.1648 216.659 49.1648H211.225C209.945 49.1648 208.994 47.9782 209.274 46.7285L218.958 3.39898C219.162 2.48505 219.973 1.83522 220.91 1.83522H235.819C236.756 1.83522 237.567 2.48505 237.771 3.39898L247.455 46.7285C247.735 47.9782 246.784 49.1648 245.504 49.1648H240.07C239.129 49.1648 238.316 48.5097 238.116 47.5909L236.935 42.1776ZM230.36 11.3547C230.164 10.4307 229.348 9.76989 228.404 9.76989H228.325C227.381 9.76989 226.565 10.4307 226.369 11.3547L222.447 29.8363C222.183 31.0802 223.132 32.2514 224.404 32.2514H232.326C233.597 32.2514 234.546 31.0802 234.282 29.8363L230.36 11.3547Z" stroke="#AEAEAE" stroke-width="2" mask="url(#path-1-outside-1)"/>
</svg>