<svg width="101" height="118" viewBox="0 0 101 118" fill="none" xmlns="http://www.w3.org/2000/svg">
<path fill-rule="evenodd" clip-rule="evenodd" d="M51 0C48.2386 0 46 2.23858 46 5V10C46 10.2643 46.0205 10.5239 46.06 10.7772C39.641 12.8587 35 18.8874 35 26C35 30.7964 37.1105 35.0999 40.4536 38.0324L19.34 91.9517C17.7725 95.9547 17.6973 100.388 19.1281 104.442C19.6472 105.913 19.9719 107.445 20.0941 109L20.7458 117.295L49.6697 41.9455C50.1083 41.9816 50.552 42 51 42C51.4915 42 51.9779 41.9778 52.4581 41.9345L81.3862 117.295L82.0379 109C82.1601 107.445 82.4848 105.913 83.0039 104.442C84.4347 100.388 84.3594 95.9547 82.792 91.9517L61.6445 37.9457C64.9307 35.0154 67 30.7494 67 26C67 18.8874 62.3589 12.8587 55.9399 10.7772C55.9795 10.5239 56 10.2643 56 10V5C56 2.23858 53.7614 0 51 0ZM59 26C59 30.4183 55.4183 34 51 34C46.5817 34 43 30.4183 43 26C43 21.5817 46.5817 18 51 18C55.4183 18 59 21.5817 59 26Z" fill="#212121"/>
<path fill-rule="evenodd" clip-rule="evenodd" d="M51 64C48.7909 64 47 65.7909 47 68V71H15V70H5C2.23858 70 0 72.2386 0 75C0 77.7614 2.23858 80 5 80H15V79H47V84C47 86.2091 48.7909 88 51 88C53.2091 88 55 86.2091 55 84V79H86V80H96C98.7614 80 101 77.7614 101 75C101 72.2386 98.7614 70 96 70H86V71H55V68C55 65.7909 53.2091 64 51 64Z" fill="#212121"/>
</svg>
