<svg width="373" height="118" viewBox="0 0 373 118" fill="none" xmlns="http://www.w3.org/2000/svg">
<mask id="path-1-outside-1" maskUnits="userSpaceOnUse" x="124" y="38" width="249" height="51" fill="black">
<rect fill="white" x="124" y="38" width="249" height="51"/>
<path d="M140.833 39.8352C146.18 39.8352 150.282 40.6008 153.139 42.1321C155.997 43.6169 157.979 45.9834 159.085 49.2315C160.238 52.4796 160.814 56.9806 160.814 62.7344C160.814 68.7202 160.261 73.4531 159.155 76.9332C158.048 80.4134 156.043 82.9886 153.139 84.6591C150.282 86.3295 146.18 87.1648 140.833 87.1648H127C125.895 87.1648 125 86.2693 125 85.1648V41.8352C125 40.7307 125.895 39.8352 127 39.8352H140.833ZM140.833 78.8125C143.829 78.8125 146.041 78.2093 147.47 77.0028C148.945 75.7964 149.89 74.0795 150.305 71.8523C150.766 69.5786 150.996 66.3537 150.996 62.1776C150.996 58.4654 150.766 55.6581 150.305 53.7557C149.844 51.8532 148.899 50.4612 147.47 49.5795C146.041 48.6515 143.829 48.1875 140.833 48.1875H136.541C135.437 48.1875 134.541 49.0829 134.541 50.1875V76.8125C134.541 77.9171 135.437 78.8125 136.541 78.8125H140.833Z"/>
<path d="M183.056 88C178.308 88 174.505 87.1416 171.648 85.4247C168.79 83.7079 166.716 81.0862 165.425 77.5597C164.181 73.9867 163.558 69.3698 163.558 63.7088C163.558 58.0014 164.181 53.3613 165.425 49.7884C166.716 46.169 168.79 43.4777 171.648 41.7145C174.505 39.9048 178.308 39 183.056 39C187.803 39 191.606 39.9048 194.463 41.7145C197.321 43.4777 199.372 46.169 200.617 49.7884C201.907 53.3613 202.553 58.0014 202.553 63.7088C202.553 69.277 201.93 73.8243 200.686 77.3509C199.488 80.8774 197.459 83.5455 194.602 85.3551C191.744 87.1184 187.895 88 183.056 88ZM183.056 79.6477C185.545 79.6477 187.48 79.1373 188.863 78.1165C190.292 77.0492 191.283 75.3788 191.836 73.1051C192.435 70.785 192.735 67.6529 192.735 63.7088C192.735 59.7647 192.435 56.6326 191.836 54.3125C191.237 51.946 190.223 50.206 188.794 49.0923C187.411 47.9323 185.498 47.3523 183.056 47.3523C180.613 47.3523 178.677 47.9323 177.248 49.0923C175.865 50.206 174.874 51.946 174.275 54.3125C173.676 56.6326 173.376 59.7647 173.376 63.7088C173.376 67.3745 173.63 70.3442 174.137 72.6179C174.644 74.8916 175.589 76.6316 176.971 77.8381C178.4 79.0445 180.428 79.6477 183.056 79.6477Z"/>
<path d="M207.278 41.8352C207.278 40.7307 208.173 39.8352 209.278 39.8352H225.738C230.762 39.8352 234.449 40.8561 236.8 42.8977C239.197 44.893 240.395 48.1411 240.395 52.642C240.395 55.0549 240.004 57.0502 239.22 58.6278C238.934 59.2033 238.575 59.7541 238.142 60.2801C237.108 61.5358 237.307 63.7382 238.455 64.8904C238.972 65.4093 239.411 65.9899 239.773 66.6321C240.787 68.349 241.294 70.5994 241.294 73.3835C241.294 78.0237 239.981 81.4806 237.353 83.7543C234.726 86.0279 230.946 87.1648 226.014 87.1648H209.278C208.173 87.1648 207.278 86.2693 207.278 85.1648V41.8352ZM225.323 59.3239C228.918 59.3239 230.716 57.4446 230.716 53.6861C230.716 49.9276 228.895 48.0483 225.254 48.0483H218.819C217.714 48.0483 216.819 48.9437 216.819 50.0483V57.3239C216.819 58.4284 217.714 59.3239 218.819 59.3239H225.323ZM225.531 78.9517C227.605 78.9517 229.126 78.5341 230.094 77.6989C231.108 76.8172 231.615 75.3556 231.615 73.3139C231.615 71.2723 231.131 69.7874 230.163 68.8594C229.195 67.8849 227.651 67.3977 225.531 67.3977H218.819C217.714 67.3977 216.819 68.2932 216.819 69.3977V76.9517C216.819 78.0563 217.714 78.9517 218.819 78.9517H225.531Z"/>
<path d="M257.494 48.1875C256.389 48.1875 255.494 49.0829 255.494 50.1875V57.2543C255.494 58.3588 256.389 59.2543 257.494 59.2543H270.225C271.33 59.2543 272.225 60.1497 272.225 61.2543V65.4673C272.225 66.5719 271.33 67.4673 270.225 67.4673H257.494C256.389 67.4673 255.494 68.3628 255.494 69.4673V76.8125C255.494 77.9171 256.389 78.8125 257.494 78.8125H274.373C275.478 78.8125 276.373 79.7079 276.373 80.8125V85.1648C276.373 86.2693 275.478 87.1648 274.373 87.1648H247.952C246.848 87.1648 245.952 86.2693 245.952 85.1648V41.8352C245.952 40.7307 246.848 39.8352 247.952 39.8352H274.373C275.478 39.8352 276.373 40.7307 276.373 41.8352V46.1875C276.373 47.2921 275.478 48.1875 274.373 48.1875H257.494Z"/>
<path d="M327.867 39.8352C328.971 39.8352 329.867 40.7307 329.867 41.8352V85.1648C329.867 86.2693 328.971 87.1648 327.867 87.1648H322.326C321.221 87.1648 320.326 86.2693 320.326 85.1648V51.1404C320.326 50.8165 320.063 50.554 319.739 50.554C319.474 50.554 319.241 50.7327 319.173 50.9895L310.489 83.5915C310.256 84.4673 309.463 85.0767 308.556 85.0767H302.089C301.183 85.0767 300.39 84.4673 300.156 83.5915L291.473 50.9895C291.404 50.7327 291.172 50.554 290.906 50.554C290.582 50.554 290.32 50.8165 290.32 51.1404V85.1648C290.32 86.2693 289.424 87.1648 288.32 87.1648H282.778C281.674 87.1648 280.778 86.2693 280.778 85.1648V41.8352C280.778 40.7307 281.674 39.8352 282.778 39.8352H295.45C296.375 39.8352 297.178 40.4685 297.395 41.367L303.378 66.2139C303.87 68.2562 306.775 68.2562 307.267 66.2139L313.25 41.367C313.467 40.4685 314.271 39.8352 315.195 39.8352H327.867Z"/>
<path d="M360.935 80.1776C360.735 79.2588 359.922 78.6037 358.981 78.6037H345.748C344.808 78.6037 343.994 79.2588 343.794 80.1776L342.613 85.5909C342.413 86.5097 341.6 87.1648 340.659 87.1648H335.225C333.945 87.1648 332.994 85.9782 333.274 84.7285L342.958 41.399C343.162 40.485 343.973 39.8352 344.91 39.8352H359.819C360.756 39.8352 361.567 40.485 361.771 41.399L371.455 84.7285C371.735 85.9782 370.784 87.1648 369.504 87.1648H364.07C363.129 87.1648 362.316 86.5097 362.116 85.5909L360.935 80.1776ZM354.36 49.3547C354.164 48.4307 353.348 47.7699 352.404 47.7699H352.325C351.381 47.7699 350.565 48.4307 350.369 49.3547L346.447 67.8363C346.183 69.0802 347.132 70.2514 348.404 70.2514H356.326C357.597 70.2514 358.546 69.0802 358.282 67.8363L354.36 49.3547Z"/>
</mask>
<path d="M140.833 39.8352C146.18 39.8352 150.282 40.6008 153.139 42.1321C155.997 43.6169 157.979 45.9834 159.085 49.2315C160.238 52.4796 160.814 56.9806 160.814 62.7344C160.814 68.7202 160.261 73.4531 159.155 76.9332C158.048 80.4134 156.043 82.9886 153.139 84.6591C150.282 86.3295 146.18 87.1648 140.833 87.1648H127C125.895 87.1648 125 86.2693 125 85.1648V41.8352C125 40.7307 125.895 39.8352 127 39.8352H140.833ZM140.833 78.8125C143.829 78.8125 146.041 78.2093 147.47 77.0028C148.945 75.7964 149.89 74.0795 150.305 71.8523C150.766 69.5786 150.996 66.3537 150.996 62.1776C150.996 58.4654 150.766 55.6581 150.305 53.7557C149.844 51.8532 148.899 50.4612 147.47 49.5795C146.041 48.6515 143.829 48.1875 140.833 48.1875H136.541C135.437 48.1875 134.541 49.0829 134.541 50.1875V76.8125C134.541 77.9171 135.437 78.8125 136.541 78.8125H140.833Z" fill="#212121"/>
<path d="M183.056 88C178.308 88 174.505 87.1416 171.648 85.4247C168.79 83.7079 166.716 81.0862 165.425 77.5597C164.181 73.9867 163.558 69.3698 163.558 63.7088C163.558 58.0014 164.181 53.3613 165.425 49.7884C166.716 46.169 168.79 43.4777 171.648 41.7145C174.505 39.9048 178.308 39 183.056 39C187.803 39 191.606 39.9048 194.463 41.7145C197.321 43.4777 199.372 46.169 200.617 49.7884C201.907 53.3613 202.553 58.0014 202.553 63.7088C202.553 69.277 201.93 73.8243 200.686 77.3509C199.488 80.8774 197.459 83.5455 194.602 85.3551C191.744 87.1184 187.895 88 183.056 88ZM183.056 79.6477C185.545 79.6477 187.48 79.1373 188.863 78.1165C190.292 77.0492 191.283 75.3788 191.836 73.1051C192.435 70.785 192.735 67.6529 192.735 63.7088C192.735 59.7647 192.435 56.6326 191.836 54.3125C191.237 51.946 190.223 50.206 188.794 49.0923C187.411 47.9323 185.498 47.3523 183.056 47.3523C180.613 47.3523 178.677 47.9323 177.248 49.0923C175.865 50.206 174.874 51.946 174.275 54.3125C173.676 56.6326 173.376 59.7647 173.376 63.7088C173.376 67.3745 173.63 70.3442 174.137 72.6179C174.644 74.8916 175.589 76.6316 176.971 77.8381C178.4 79.0445 180.428 79.6477 183.056 79.6477Z" fill="#212121"/>
<path d="M207.278 41.8352C207.278 40.7307 208.173 39.8352 209.278 39.8352H225.738C230.762 39.8352 234.449 40.8561 236.8 42.8977C239.197 44.893 240.395 48.1411 240.395 52.642C240.395 55.0549 240.004 57.0502 239.22 58.6278C238.934 59.2033 238.575 59.7541 238.142 60.2801C237.108 61.5358 237.307 63.7382 238.455 64.8904C238.972 65.4093 239.411 65.9899 239.773 66.6321C240.787 68.349 241.294 70.5994 241.294 73.3835C241.294 78.0237 239.981 81.4806 237.353 83.7543C234.726 86.0279 230.946 87.1648 226.014 87.1648H209.278C208.173 87.1648 207.278 86.2693 207.278 85.1648V41.8352ZM225.323 59.3239C228.918 59.3239 230.716 57.4446 230.716 53.6861C230.716 49.9276 228.895 48.0483 225.254 48.0483H218.819C217.714 48.0483 216.819 48.9437 216.819 50.0483V57.3239C216.819 58.4284 217.714 59.3239 218.819 59.3239H225.323ZM225.531 78.9517C227.605 78.9517 229.126 78.5341 230.094 77.6989C231.108 76.8172 231.615 75.3556 231.615 73.3139C231.615 71.2723 231.131 69.7874 230.163 68.8594C229.195 67.8849 227.651 67.3977 225.531 67.3977H218.819C217.714 67.3977 216.819 68.2932 216.819 69.3977V76.9517C216.819 78.0563 217.714 78.9517 218.819 78.9517H225.531Z" fill="#212121"/>
<path d="M257.494 48.1875C256.389 48.1875 255.494 49.0829 255.494 50.1875V57.2543C255.494 58.3588 256.389 59.2543 257.494 59.2543H270.225C271.33 59.2543 272.225 60.1497 272.225 61.2543V65.4673C272.225 66.5719 271.33 67.4673 270.225 67.4673H257.494C256.389 67.4673 255.494 68.3628 255.494 69.4673V76.8125C255.494 77.9171 256.389 78.8125 257.494 78.8125H274.373C275.478 78.8125 276.373 79.7079 276.373 80.8125V85.1648C276.373 86.2693 275.478 87.1648 274.373 87.1648H247.952C246.848 87.1648 245.952 86.2693 245.952 85.1648V41.8352C245.952 40.7307 246.848 39.8352 247.952 39.8352H274.373C275.478 39.8352 276.373 40.7307 276.373 41.8352V46.1875C276.373 47.2921 275.478 48.1875 274.373 48.1875H257.494Z" fill="#212121"/>
<path d="M327.867 39.8352C328.971 39.8352 329.867 40.7307 329.867 41.8352V85.1648C329.867 86.2693 328.971 87.1648 327.867 87.1648H322.326C321.221 87.1648 320.326 86.2693 320.326 85.1648V51.1404C320.326 50.8165 320.063 50.554 319.739 50.554C319.474 50.554 319.241 50.7327 319.173 50.9895L310.489 83.5915C310.256 84.4673 309.463 85.0767 308.556 85.0767H302.089C301.183 85.0767 300.39 84.4673 300.156 83.5915L291.473 50.9895C291.404 50.7327 291.172 50.554 290.906 50.554C290.582 50.554 290.32 50.8165 290.32 51.1404V85.1648C290.32 86.2693 289.424 87.1648 288.32 87.1648H282.778C281.674 87.1648 280.778 86.2693 280.778 85.1648V41.8352C280.778 40.7307 281.674 39.8352 282.778 39.8352H295.45C296.375 39.8352 297.178 40.4685 297.395 41.367L303.378 66.2139C303.87 68.2562 306.775 68.2562 307.267 66.2139L313.25 41.367C313.467 40.4685 314.271 39.8352 315.195 39.8352H327.867Z" fill="#212121"/>
<path d="M360.935 80.1776C360.735 79.2588 359.922 78.6037 358.981 78.6037H345.748C344.808 78.6037 343.994 79.2588 343.794 80.1776L342.613 85.5909C342.413 86.5097 341.6 87.1648 340.659 87.1648H335.225C333.945 87.1648 332.994 85.9782 333.274 84.7285L342.958 41.399C343.162 40.485 343.973 39.8352 344.91 39.8352H359.819C360.756 39.8352 361.567 40.485 361.771 41.399L371.455 84.7285C371.735 85.9782 370.784 87.1648 369.504 87.1648H364.07C363.129 87.1648 362.316 86.5097 362.116 85.5909L360.935 80.1776ZM354.36 49.3547C354.164 48.4307 353.348 47.7699 352.404 47.7699H352.325C351.381 47.7699 350.565 48.4307 350.369 49.3547L346.447 67.8363C346.183 69.0802 347.132 70.2514 348.404 70.2514H356.326C357.597 70.2514 358.546 69.0802 358.282 67.8363L354.36 49.3547Z" fill="#212121"/>
<path d="M140.833 39.8352C146.18 39.8352 150.282 40.6008 153.139 42.1321C155.997 43.6169 157.979 45.9834 159.085 49.2315C160.238 52.4796 160.814 56.9806 160.814 62.7344C160.814 68.7202 160.261 73.4531 159.155 76.9332C158.048 80.4134 156.043 82.9886 153.139 84.6591C150.282 86.3295 146.18 87.1648 140.833 87.1648H127C125.895 87.1648 125 86.2693 125 85.1648V41.8352C125 40.7307 125.895 39.8352 127 39.8352H140.833ZM140.833 78.8125C143.829 78.8125 146.041 78.2093 147.47 77.0028C148.945 75.7964 149.89 74.0795 150.305 71.8523C150.766 69.5786 150.996 66.3537 150.996 62.1776C150.996 58.4654 150.766 55.6581 150.305 53.7557C149.844 51.8532 148.899 50.4612 147.47 49.5795C146.041 48.6515 143.829 48.1875 140.833 48.1875H136.541C135.437 48.1875 134.541 49.0829 134.541 50.1875V76.8125C134.541 77.9171 135.437 78.8125 136.541 78.8125H140.833Z" stroke="#AEAEAE" stroke-width="2" mask="url(#path-1-outside-1)"/>
<path d="M183.056 88C178.308 88 174.505 87.1416 171.648 85.4247C168.79 83.7079 166.716 81.0862 165.425 77.5597C164.181 73.9867 163.558 69.3698 163.558 63.7088C163.558 58.0014 164.181 53.3613 165.425 49.7884C166.716 46.169 168.79 43.4777 171.648 41.7145C174.505 39.9048 178.308 39 183.056 39C187.803 39 191.606 39.9048 194.463 41.7145C197.321 43.4777 199.372 46.169 200.617 49.7884C201.907 53.3613 202.553 58.0014 202.553 63.7088C202.553 69.277 201.93 73.8243 200.686 77.3509C199.488 80.8774 197.459 83.5455 194.602 85.3551C191.744 87.1184 187.895 88 183.056 88ZM183.056 79.6477C185.545 79.6477 187.48 79.1373 188.863 78.1165C190.292 77.0492 191.283 75.3788 191.836 73.1051C192.435 70.785 192.735 67.6529 192.735 63.7088C192.735 59.7647 192.435 56.6326 191.836 54.3125C191.237 51.946 190.223 50.206 188.794 49.0923C187.411 47.9323 185.498 47.3523 183.056 47.3523C180.613 47.3523 178.677 47.9323 177.248 49.0923C175.865 50.206 174.874 51.946 174.275 54.3125C173.676 56.6326 173.376 59.7647 173.376 63.7088C173.376 67.3745 173.63 70.3442 174.137 72.6179C174.644 74.8916 175.589 76.6316 176.971 77.8381C178.4 79.0445 180.428 79.6477 183.056 79.6477Z" stroke="#AEAEAE" stroke-width="2" mask="url(#path-1-outside-1)"/>
<path d="M207.278 41.8352C207.278 40.7307 208.173 39.8352 209.278 39.8352H225.738C230.762 39.8352 234.449 40.8561 236.8 42.8977C239.197 44.893 240.395 48.1411 240.395 52.642C240.395 55.0549 240.004 57.0502 239.22 58.6278C238.934 59.2033 238.575 59.7541 238.142 60.2801C237.108 61.5358 237.307 63.7382 238.455 64.8904C238.972 65.4093 239.411 65.9899 239.773 66.6321C240.787 68.349 241.294 70.5994 241.294 73.3835C241.294 78.0237 239.981 81.4806 237.353 83.7543C234.726 86.0279 230.946 87.1648 226.014 87.1648H209.278C208.173 87.1648 207.278 86.2693 207.278 85.1648V41.8352ZM225.323 59.3239C228.918 59.3239 230.716 57.4446 230.716 53.6861C230.716 49.9276 228.895 48.0483 225.254 48.0483H218.819C217.714 48.0483 216.819 48.9437 216.819 50.0483V57.3239C216.819 58.4284 217.714 59.3239 218.819 59.3239H225.323ZM225.531 78.9517C227.605 78.9517 229.126 78.5341 230.094 77.6989C231.108 76.8172 231.615 75.3556 231.615 73.3139C231.615 71.2723 231.131 69.7874 230.163 68.8594C229.195 67.8849 227.651 67.3977 225.531 67.3977H218.819C217.714 67.3977 216.819 68.2932 216.819 69.3977V76.9517C216.819 78.0563 217.714 78.9517 218.819 78.9517H225.531Z" stroke="#AEAEAE" stroke-width="2" mask="url(#path-1-outside-1)"/>
<path d="M257.494 48.1875C256.389 48.1875 255.494 49.0829 255.494 50.1875V57.2543C255.494 58.3588 256.389 59.2543 257.494 59.2543H270.225C271.33 59.2543 272.225 60.1497 272.225 61.2543V65.4673C272.225 66.5719 271.33 67.4673 270.225 67.4673H257.494C256.389 67.4673 255.494 68.3628 255.494 69.4673V76.8125C255.494 77.9171 256.389 78.8125 257.494 78.8125H274.373C275.478 78.8125 276.373 79.7079 276.373 80.8125V85.1648C276.373 86.2693 275.478 87.1648 274.373 87.1648H247.952C246.848 87.1648 245.952 86.2693 245.952 85.1648V41.8352C245.952 40.7307 246.848 39.8352 247.952 39.8352H274.373C275.478 39.8352 276.373 40.7307 276.373 41.8352V46.1875C276.373 47.2921 275.478 48.1875 274.373 48.1875H257.494Z" stroke="#AEAEAE" stroke-width="2" mask="url(#path-1-outside-1)"/>
<path d="M327.867 39.8352C328.971 39.8352 329.867 40.7307 329.867 41.8352V85.1648C329.867 86.2693 328.971 87.1648 327.867 87.1648H322.326C321.221 87.1648 320.326 86.2693 320.326 85.1648V51.1404C320.326 50.8165 320.063 50.554 319.739 50.554C319.474 50.554 319.241 50.7327 319.173 50.9895L310.489 83.5915C310.256 84.4673 309.463 85.0767 308.556 85.0767H302.089C301.183 85.0767 300.39 84.4673 300.156 83.5915L291.473 50.9895C291.404 50.7327 291.172 50.554 290.906 50.554C290.582 50.554 290.32 50.8165 290.32 51.1404V85.1648C290.32 86.2693 289.424 87.1648 288.32 87.1648H282.778C281.674 87.1648 280.778 86.2693 280.778 85.1648V41.8352C280.778 40.7307 281.674 39.8352 282.778 39.8352H295.45C296.375 39.8352 297.178 40.4685 297.395 41.367L303.378 66.2139C303.87 68.2562 306.775 68.2562 307.267 66.2139L313.25 41.367C313.467 40.4685 314.271 39.8352 315.195 39.8352H327.867Z" stroke="#AEAEAE" stroke-width="2" mask="url(#path-1-outside-1)"/>


</svg>
