<svg width="24" height="24" viewBox="0 0 24 24" fill="none" xmlns="http://www.w3.org/2000/svg">
<!--<rect width="24" height="24" fill="#C4C4C4"/>-->
<path d="M20.4173 17.3559H20.3989V17.6512C20.3989 17.8843 20.3043 18.0881 20.1405 18.2429C19.9767 18.3977 19.7609 18.4871 19.5143 18.4871H4.48575C4.23906 18.4871 4.02331 18.3977 3.8595 18.2429C3.69569 18.0881 3.60113 17.8843 3.60113 17.6512V8.98463C3.60113 8.7516 3.69569 8.54773 3.8595 8.39294C4.02331 8.23815 4.23906 8.14874 4.48575 8.14874H8.04025C8.48913 8.14874 8.85006 7.80775 8.85006 7.3836V6.87896C8.85006 6.75854 8.896 6.66198 8.96113 6.60044C9.02619 6.53897 9.12844 6.4955 9.25581 6.4955H14.7626C14.89 6.4955 14.9923 6.53897 15.0573 6.60044C15.1224 6.66198 15.1684 6.75854 15.1684 6.87896V7.3836C15.1684 7.80775 15.5293 8.14874 15.9781 8.14874H19.5327C19.7793 8.14874 19.9951 8.23815 20.1589 8.39294C20.3227 8.54773 20.4173 8.7516 20.4173 8.98463V17.3559ZM21.2639 7.33139C20.8187 6.89337 20.2051 6.63588 19.5143 6.63588H16.7508C16.6911 6.22159 16.4906 5.83329 16.1774 5.55319C15.8077 5.20552 15.3066 5 14.7626 5H9.23737C8.67506 5 8.17219 5.20552 7.80088 5.55638C7.49419 5.84617 7.29131 6.22201 7.23094 6.63588H4.48575C3.79362 6.63588 3.17892 6.89431 2.73357 7.33387C2.29497 7.74952 2 8.34381 2 8.98463V17.6512C2 18.3052 2.27354 18.8861 2.73872 19.3068C3.17862 19.7213 3.80756 20 4.48575 20H19.5143C20.2064 20 20.8211 19.7416 21.2664 19.302C21.7051 18.8864 22 18.292 22 17.6512V8.98463C22 8.33188 21.7275 7.752 21.2639 7.33139Z" fill="#4E4E4E" stroke="#212121"/>
<path d="M15.328 13.019H15.3279L15.3281 13.0251C15.3453 13.9362 14.9679 14.7658 14.3594 15.3751C13.749 15.9672 12.9159 16.347 12 16.347C11.0841 16.347 10.251 15.9672 9.64058 15.3751C9.03541 14.769 8.67195 13.9386 8.67195 13.019C8.67195 12.1031 9.05173 11.27 9.64387 10.6597C10.2499 10.0544 11.0804 9.69104 12 9.69104C12.9159 9.69104 13.749 10.0708 14.3594 10.663C14.9646 11.269 15.328 12.0994 15.328 13.019ZM12 8C10.6177 8 9.3579 8.5691 8.46347 9.46352C7.54936 10.3776 7 11.6187 7 13C7 14.3822 7.56904 15.6421 8.46347 16.5365C9.37758 17.4506 10.6187 18 12 18C13.3822 18 14.6421 17.4309 15.5365 16.5365C16.4506 15.6224 17 14.3813 17 13C17 11.6178 16.4309 10.3579 15.5365 9.46352C14.6421 8.5691 13.3822 8 12 8Z" fill="#4E4E4E" stroke="#212121"/>
</svg>
