<svg width="24" height="24" viewBox="0 0 24 24" fill="none" xmlns="http://www.w3.org/2000/svg">
<!--<rect width="24" height="24" fill="#C4C4C4"/>-->
<path d="M6.78262 3L6.34779 8.18184L6.78262 3ZM6.78262 3H22H6.78262ZM6.78262 3L12.5314 7.70203L6.78262 3ZM6.34779 8.18184L4.60869 6.0227L2.43478 7.31816L2 10.7727L4.60869 15.5227L8.08697 18.9773L13.3043 22H16.3478L18.087 19.4091L13.7391 16.3864L12 18.5455L8.08697 15.5227L7.43476 14.6591L6.34779 8.18184ZM6.34779 8.18184L7.65221 10.7727L5.47828 12.0682L7.10869 14.2273L6.34779 8.18184ZM22 3V14.6591V3ZM22 3L15.913 7.70203L22 3ZM22 14.6591H7.43476H22ZM22 14.6591L15.913 7.70203L22 14.6591ZM7.43476 14.6591L7.10869 14.2273L7.43476 14.6591ZM15.913 7.70203L14.1739 9.04546L12.5314 7.70203H15.913ZM12.5314 7.70203L7.10869 14.2273Z" fill="#4E4E4E"/>
<path d="M12.5314 7.70203L7.10869 14.2273M6.78262 3L6.34779 8.18184L6.78262 3ZM6.78262 3H22H6.78262ZM6.78262 3L12.5314 7.70203L6.78262 3ZM6.34779 8.18184L4.60869 6.0227L2.43478 7.31816L2 10.7727L4.60869 15.5227L8.08697 18.9773L13.3043 22H16.3478L18.087 19.4091L13.7391 16.3864L12 18.5455L8.08697 15.5227L7.43476 14.6591L6.34779 8.18184ZM6.34779 8.18184L7.65221 10.7727L5.47828 12.0682L7.10869 14.2273L6.34779 8.18184ZM22 3V14.6591V3ZM22 3L15.913 7.70203L22 3ZM22 14.6591H7.43476H22ZM22 14.6591L15.913 7.70203L22 14.6591ZM7.43476 14.6591L7.10869 14.2273L7.43476 14.6591ZM15.913 7.70203L14.1739 9.04546L12.5314 7.70203H15.913Z" stroke="#212121" stroke-width="2" stroke-linejoin="round"/>
</svg>