<svg width="24" height="30" viewBox="0 0 24 30" fill="none" xmlns="http://www.w3.org/2000/svg">
<!--<rect y="3" width="24" height="24" fill="#C4C4C4"/>-->
<path d="M5.99219 15H4.10156V5.86719L1.3125 6.82031V5.21875L5.75 3.58594H5.99219V15ZM16.2394 10.2109C16.2394 11.8464 15.9321 13.0807 15.3175 13.9141C14.7081 14.7422 13.7784 15.1562 12.5284 15.1562C11.2993 15.1562 10.3722 14.7526 9.74719 13.9453C9.1274 13.1328 8.80969 11.9323 8.79406 10.3438V8.375C8.79406 6.73958 9.09875 5.51302 9.70813 4.69531C10.3227 3.8776 11.2576 3.46875 12.5128 3.46875C13.7576 3.46875 14.6847 3.86719 15.2941 4.66406C15.9086 5.46094 16.2238 6.65365 16.2394 8.24219V10.2109ZM14.3409 8.08594C14.3409 7.01823 14.1951 6.23698 13.9034 5.74219C13.6118 5.24219 13.1482 4.99219 12.5128 4.99219C11.893 4.99219 11.4373 5.22917 11.1456 5.70312C10.854 6.17188 10.7003 6.90625 10.6847 7.90625V10.4844C10.6847 11.5469 10.8331 12.3385 11.13 12.8594C11.4269 13.3802 11.893 13.6406 12.5284 13.6406C13.1378 13.6406 13.5883 13.401 13.88 12.9219C14.1717 12.4375 14.3253 11.6823 14.3409 10.6562V8.08594Z" fill="#212121"/>
<path d="M12.6182 27H10.957V16.5H12.6182V27ZM16.7104 27.1367C15.6577 27.1367 14.8032 26.8063 14.147 26.1455C13.4953 25.4801 13.1694 24.596 13.1694 23.4932V23.2881C13.1694 22.5498 13.3107 21.8913 13.5932 21.3125C13.8804 20.7292 14.2814 20.2757 14.7964 19.9521C15.3113 19.6286 15.8856 19.4668 16.519 19.4668C17.5262 19.4668 18.3032 19.7881 18.8501 20.4307C19.4015 21.0732 19.6772 21.9824 19.6772 23.1582V23.8281H14.8442C14.8943 24.4388 15.0971 24.9219 15.4526 25.2773C15.8126 25.6328 16.2638 25.8105 16.8061 25.8105C17.5672 25.8105 18.187 25.5029 18.6655 24.8877L19.561 25.7422C19.2648 26.1842 18.8683 26.5283 18.3716 26.7744C17.8794 27.016 17.3257 27.1367 16.7104 27.1367ZM16.5122 20.7998C16.0565 20.7998 15.6873 20.9593 15.4048 21.2783C15.1268 21.5973 14.949 22.0417 14.8716 22.6113H18.0366V22.4883C18.0001 21.9323 17.852 21.513 17.5923 21.2305C17.3325 20.9434 16.9725 20.7998 16.5122 20.7998ZM22.0742 17.8057V19.6035H23.3798V20.834H22.0742V24.9629C22.0742 25.2454 22.1289 25.4505 22.2382 25.5781C22.3522 25.7012 22.5527 25.7627 22.8398 25.7627C23.0312 25.7627 23.2249 25.7399 23.4209 25.6943V26.9795C23.0426 27.0843 22.678 27.1367 22.3271 27.1367C21.0511 27.1367 20.413 26.4326 20.413 25.0244V20.834H19.1962V19.6035H20.413V17.8057H22.0742Z" fill="#212121"/>
</svg>