<svg width="24" height="24" viewBox="0 0 24 24" fill="none" xmlns="http://www.w3.org/2000/svg">
<!--<rect width="24" height="24" fill="#C4C4C4"/>-->
<path d="M16.0108 17.7182C15.9419 16.694 15.6391 14.3374 14.9783 13.1051M12.913 7.46274L12.0869 9.10362C11.3985 9.3771 10.4347 10.1702 12.0869 11.1547L11.2608 12.7956C10.3646 12.5731 8.90336 11.6264 8.92371 9.51378L12.913 7.46274ZM12.913 7.46274L9.19553 7.87296L12.913 7.46274ZM12.913 7.46274L16.0108 7.66782L12.913 7.46274ZM9.19553 7.87296H7.54339L7.95643 7.46274C10.0217 0.899149 15.3912 2.54 16.6304 6.23208C19.2738 6.23208 19.3839 7.326 19.1086 7.87296L16.0108 7.66782L9.19553 7.87296ZM9.19553 7.87296C9.01074 8.4846 8.92837 9.02982 8.92371 9.51378L9.19553 7.87296ZM7.54339 21C7.18496 19.1311 7.18815 16.0807 8.78262 14.2688L7.54339 21ZM12.913 12.7956C10.9516 12.6811 9.63805 13.2967 8.78262 14.2688L12.913 12.7956ZM12.913 12.7956C14.2664 12.7956 15.0724 12.0875 15.5294 11.1547L12.913 12.7956ZM12.913 12.7956C13.506 12.7588 14.2405 12.8369 14.9783 13.1051L12.913 12.7956ZM18.2826 21C18.4654 19.729 18.4731 18.6432 18.3502 17.7182L18.2826 21ZM10.4348 21C10.0217 18.8122 9.85655 14.5185 12.5 14.8466C14.3328 15.0742 14.7678 16.3114 14.8623 17.7182L10.4348 21ZM14.9783 21C14.7943 20.0866 14.9381 18.8477 14.8623 17.7182L14.9783 21ZM16.0108 7.66782C16.1233 8.5992 16.0765 10.038 15.5294 11.1547L16.0108 7.66782ZM8.78262 14.2688L3 12.7956V10.2317L8.78262 14.2688ZM8.92371 9.51378L7.54339 9.08364L8.92371 9.51378ZM15.5294 11.1547L22 12.7956V14.8466L15.5294 11.1547ZM18.1982 16.8978L22 18.1285V14.8466L18.1982 16.8978ZM18.1982 16.8978C18.2607 17.156 18.3119 17.4293 18.3502 17.7182L18.1982 16.8978ZM18.1982 16.8978C17.6678 14.7064 16.3179 13.5923 14.9783 13.1051L18.1982 16.8978ZM22 14.8466L18.6957 14.2688L22 14.8466ZM3 10.2317V7.66782L7.54339 9.08364L3 10.2317ZM3 10.2317C4.10139 10.5261 6.55202 10.7086 7.54339 9.08364L3 10.2317ZM14.8623 17.7182H16.0108H14.8623ZM18.3502 17.7182H16.0108H18.3502Z" stroke="#212121"/>
</svg>