<svg width="24" height="24" viewBox="0 0 24 24" fill="none" xmlns="http://www.w3.org/2000/svg">
<rect width="24" height="24" fill="#1E1C1C"/>
<rect x="12.3413" y="1.07864" width="15.7022" height="2.4775" rx="1.23875" transform="rotate(45 12.3413 1.07864)" fill="#FBFBFB"/>
<path d="M22.5673 13.0348L11.4762 1.94371V1.94371C11.954 1.46595 12.7286 1.46595 13.2064 1.94371L22.5673 11.3047C23.0451 11.7824 23.0451 12.5571 22.5673 13.0348V13.0348Z" fill="url(#paint0_radial)"/>
<rect x="20.4995" y="2.93677" width="19.1985" height="2.4775" rx="1.23875" transform="rotate(90 20.4995 2.93677)" fill="#FBFBFB"/>
<path d="M19.276 22.1394L19.276 2.93679V2.93679C19.9517 2.93679 20.4994 3.48452 20.4994 4.16018L20.4994 20.916C20.4994 21.5917 19.9517 22.1394 19.276 22.1394V22.1394Z" fill="url(#paint1_radial)"/>
<rect x="3.77631" y="22.1394" width="11.7676" height="2.4775" rx="1.23875" transform="rotate(-90 3.77631 22.1394)" fill="#FBFBFB"/>
<path d="M4.99969 10.3693L4.9997 22.1394V22.1394C4.32403 22.1394 3.7763 21.5917 3.7763 20.916L3.7763 11.5927C3.7763 10.917 4.32403 10.3693 4.99969 10.3693V10.3693Z" fill="url(#paint2_radial)"/>
<rect x="13.0669" y="22.1374" width="8.05012" height="2.4775" rx="1.23875" transform="rotate(-90 13.0669 22.1374)" fill="#FBFBFB"/>
<path d="M14.2903 14.0855L14.2903 22.1374V22.1374C13.6147 22.1374 13.0669 21.5897 13.0669 20.914L13.0669 15.3089C13.0669 14.6332 13.6147 14.0855 14.2903 14.0855V14.0855Z" fill="url(#paint3_radial)"/>
<rect x="1" y="12.1777" width="15.8042" height="2.4775" rx="1.23875" transform="rotate(-45 1 12.1777)" fill="#FBFBFB"/>
<path d="M13.0428 1.86508L1.8651 13.0428V13.0428C1.38734 12.565 1.38734 11.7904 1.8651 11.3126L11.3126 1.86508C11.7904 1.38732 12.565 1.38732 13.0428 1.86508V1.86508Z" fill="url(#paint4_radial)"/>
<rect x="8.73132" y="14.0855" width="6.81164" height="2.4775" rx="1.23875" fill="#FBFBFB"/>
<path d="M15.5444 15.3089L8.73131 15.3089V15.3089C8.73131 14.6333 9.27904 14.0855 9.95471 14.0855L14.321 14.0855C14.9967 14.0855 15.5444 14.6333 15.5444 15.3089V15.3089Z" fill="url(#paint5_radial)"/>
<rect x="13.0669" y="19.6599" width="7.43088" height="2.4775" rx="1.23875" fill="#FBFBFB"/>
<path d="M20.4995 20.8833L13.067 20.8833V20.8833C13.067 20.2076 13.6147 19.6599 14.2903 19.6599L19.2761 19.6599C19.9517 19.6599 20.4995 20.2076 20.4995 20.8833V20.8833Z" fill="url(#paint6_radial)"/>
<rect x="3.77631" y="19.6599" width="7.43088" height="2.4775" rx="1.23875" fill="#FBFBFB"/>
<path d="M11.2088 20.8833L3.7763 20.8833V20.8833C3.7763 20.2076 4.32403 19.6599 4.9997 19.6599L9.9854 19.6599C10.6611 19.6599 11.2088 20.2076 11.2088 20.8833V20.8833Z" fill="url(#paint7_radial)"/>
<rect x="8.73132" y="22.1374" width="8.05012" height="2.4775" rx="1.23875" transform="rotate(-90 8.73132 22.1374)" fill="#FBFBFB"/>
<path d="M9.95471 14.0855L9.95471 22.1374V22.1374C9.27905 22.1374 8.73132 21.5897 8.73132 20.914L8.73131 15.3089C8.73131 14.6332 9.27905 14.0855 9.95471 14.0855V14.0855Z" fill="url(#paint8_radial)"/>
<defs>
<radialGradient id="paint0_radial" cx="0" cy="0" r="1" gradientUnits="userSpaceOnUse" gradientTransform="translate(17.4543 7.05673) rotate(-45) scale(0.611699 7.8426)">
<stop stop-color="#F0EDED"/>
<stop offset="1" stop-color="#D0D0D0"/>
</radialGradient>
<radialGradient id="paint1_radial" cx="0" cy="0" r="1" gradientUnits="userSpaceOnUse" gradientTransform="translate(19.8877 12.5381) scale(0.611699 9.60132)">
<stop stop-color="#F0EDED"/>
<stop offset="1" stop-color="#D0D0D0"/>
</radialGradient>
<radialGradient id="paint2_radial" cx="0" cy="0" r="1" gradientUnits="userSpaceOnUse" gradientTransform="translate(4.388 16.2543) rotate(180) scale(0.611699 5.88507)">
<stop stop-color="#F0EDED"/>
<stop offset="1" stop-color="#D0D0D0"/>
</radialGradient>
<radialGradient id="paint3_radial" cx="0" cy="0" r="1" gradientUnits="userSpaceOnUse" gradientTransform="translate(13.6786 18.1114) rotate(180) scale(0.611699 4.02594)">
<stop stop-color="#F0EDED"/>
<stop offset="1" stop-color="#D0D0D0"/>
</radialGradient>
<radialGradient id="paint4_radial" cx="0" cy="0" r="1" gradientUnits="userSpaceOnUse" gradientTransform="translate(7.02141 7.02139) rotate(-135) scale(0.611699 7.90382)">
<stop stop-color="#F0EDED"/>
<stop offset="1" stop-color="#D0D0D0"/>
</radialGradient>
<radialGradient id="paint5_radial" cx="0" cy="0" r="1" gradientUnits="userSpaceOnUse" gradientTransform="translate(12.1379 14.6972) rotate(-90) scale(0.611699 3.40656)">
<stop stop-color="#F0EDED"/>
<stop offset="1" stop-color="#D0D0D0"/>
</radialGradient>
<radialGradient id="paint6_radial" cx="0" cy="0" r="1" gradientUnits="userSpaceOnUse" gradientTransform="translate(16.7832 20.2716) rotate(-90) scale(0.611699 3.71625)">
<stop stop-color="#F0EDED"/>
<stop offset="1" stop-color="#D0D0D0"/>
</radialGradient>
<radialGradient id="paint7_radial" cx="0" cy="0" r="1" gradientUnits="userSpaceOnUse" gradientTransform="translate(7.49255 20.2716) rotate(-90) scale(0.611699 3.71625)">
<stop stop-color="#F0EDED"/>
<stop offset="1" stop-color="#D0D0D0"/>
</radialGradient>
<radialGradient id="paint8_radial" cx="0" cy="0" r="1" gradientUnits="userSpaceOnUse" gradientTransform="translate(9.34301 18.1114) rotate(180) scale(0.611699 4.02594)">
<stop stop-color="#F0EDED"/>
<stop offset="1" stop-color="#D0D0D0"/>
</radialGradient>
</defs>
</svg>
