<svg width="37" height="42" viewBox="0 0 37 42" fill="none" xmlns="http://www.w3.org/2000/svg">
<path fill-rule="evenodd" clip-rule="evenodd" d="M18.2196 0C17.233 0 16.4333 0.79972 16.4333 1.78623V3.58486C16.4333 3.67814 16.4405 3.76975 16.4543 3.85917C14.1614 4.60467 12.5036 6.76324 12.5036 9.30989C12.5036 11.0274 13.2576 12.5683 14.4519 13.6184L6.90839 32.9273C6.34886 34.3596 6.32222 35.946 6.83332 37.3974C7.01884 37.9243 7.13489 38.473 7.17853 39.0298L7.41137 42L17.7443 15.0195C17.901 15.0325 18.0595 15.039 18.2195 15.039C18.3951 15.039 18.5689 15.0311 18.7404 15.0156L29.0749 42L29.3077 39.0298C29.3514 38.473 29.4674 37.9243 29.6529 37.3974C30.164 35.946 30.1374 34.3596 29.5779 32.9273L22.0222 13.5873C23.1962 12.5381 23.9355 11.0105 23.9355 9.30989C23.9355 6.76324 22.2777 4.60468 19.9848 3.85918C19.9986 3.76975 20.0058 3.67814 20.0058 3.58486V1.78623C20.0058 0.799722 19.2061 0 18.2196 0ZM21.0775 9.30988C21.0775 10.8919 19.798 12.1745 18.2195 12.1745C16.6411 12.1745 15.3616 10.8919 15.3616 9.30988C15.3616 7.72782 16.6411 6.4453 18.2195 6.4453C19.798 6.4453 21.0775 7.72782 21.0775 9.30988Z" fill="#4E4E4E"/>
<path fill-rule="evenodd" clip-rule="evenodd" d="M18.2195 22.9166C17.4303 22.9166 16.7906 23.5564 16.7906 24.3456V25.4231H5.35869L5.35869 25.0651H1.79036C0.801572 25.0651 0 25.8666 0 26.8554C0 27.8442 0.801572 28.6458 1.79036 28.6458H5.35869L5.35869 28.2877H16.7906V30.0814C16.7906 30.8706 17.4303 31.5104 18.2195 31.5104C19.0087 31.5104 19.6485 30.8706 19.6485 30.0814V28.2877H30.7232V25.4231H19.6485V24.3456C19.6485 23.5564 19.0087 22.9166 18.2195 22.9166ZM30.7232 25.0651H34.2915C35.2803 25.0651 36.0819 25.8666 36.0819 26.8554C36.0819 27.8442 35.2803 28.6458 34.2915 28.6458H30.7232V25.0651Z" fill="#4E4E4E"/>
</svg>