<svg width="24" height="24" viewBox="0 0 24 24" fill="none" xmlns="http://www.w3.org/2000/svg">
<path fill-rule="evenodd" clip-rule="evenodd" d="M13.8955 16.755C12.6116 17.5351 11.1043 17.9843 9.49216 17.9843C4.80207 17.9843 1 14.1823 1 9.49216C1 4.80207 4.80207 1 9.49216 1C14.1823 1 17.9843 4.80207 17.9843 9.49216C17.9843 11.1043 17.5351 12.6116 16.755 13.8955L21.4078 18.5483C22.1974 19.3379 22.1974 20.6182 21.4078 21.4078C20.6182 22.1974 19.3379 22.1974 18.5483 21.4078L13.8955 16.755ZM13.9404 9.49217C13.9404 11.9489 11.9489 13.9404 9.49216 13.9404C7.03545 13.9404 5.04389 11.9489 5.04389 9.49217C5.04389 7.03545 7.03545 5.04389 9.49216 5.04389C11.9489 5.04389 13.9404 7.03545 13.9404 9.49217Z" fill="#32CA41"/>
<path fill-rule="evenodd" clip-rule="evenodd" d="M9.5 16C13.0899 16 16 13.0899 16 9.5C16 5.91015 13.0899 3 9.5 3C5.91015 3 3 5.91015 3 9.5C3 13.0899 5.91015 16 9.5 16ZM9.49216 13.9404C11.9489 13.9404 13.9404 11.9489 13.9404 9.49217C13.9404 7.03545 11.9489 5.04389 9.49216 5.04389C7.03545 5.04389 5.04389 7.03545 5.04389 9.49217C5.04389 11.9489 7.03545 13.9404 9.49216 13.9404Z" fill="#17AE38"/>
</svg>